<svg xmlns="http://www.w3.org/2000/svg" version="1.1"
  width="100%" height="100%" preserveAspectRatio="none"
  viewBox="0 0 1920 1080">
  <g mask="url(&quot;#SvgjsMask1076&quot;)" fill="none">
    <rect width="1920" height="1080" x="0" y="0" fill="rgba(18, 18, 18, 1)"></rect>
    <path
      d="M0,906.685C169.868,894.146,337.94,837.973,467.384,727.264C588.521,623.66,623.007,459.738,691.098,315.614C760.23,169.288,897.004,34.481,870.081,-125.099C843.182,-284.537,663.407,-360.906,556.494,-482.205C450.731,-602.199,394.24,-776.827,244.977,-834.316C93.187,-892.778,-88.736,-864.931,-230.602,-785.357C-362.518,-711.364,-383.026,-531.723,-488.228,-423.052C-602.801,-304.702,-807.098,-277.375,-869.821,-125.061C-934.671,32.417,-877.047,213.655,-815.879,372.599C-751.964,538.681,-662.829,702.237,-513.938,799.703C-364.506,897.523,-178.117,919.833,0,906.685"
      fill="#0c0c0c"></path>
    <path
      d="M1920 1936.495C2078.902 1943.404 2206.554 1819.748 2344.279 1740.191 2489.379 1656.374 2669.968 1606.422 2748.062 1458.163 2827.074 1308.162 2810.435 1120.222 2755.291 959.903 2704.803 813.119 2560.891 730.038 2457.7200000000003 614.063 2356.2200000000003 499.967 2296.132 339.08799999999997 2153.796 283.76300000000003 2008.306 227.212 1842.295 262.90200000000004 1696.285 318.097 1557.034 370.73699999999997 1446.025 472.37199999999996 1351.225 587.153 1258.1970000000001 699.789 1166.557 824.568 1157.557 970.377 1148.806 1112.155 1240.6970000000001 1234.133 1303.426 1361.58 1364.24 1485.136 1418.07 1610.383 1518.789 1704.297 1634.138 1811.853 1762.435 1929.644 1920 1936.495"
      fill="#181818"></path>
  </g>
  <defs>
    <mask id="SvgjsMask1076">
      <rect width="100%" height="100%" fill="#ffffff"></rect>
    </mask>
  </defs>
</svg>
