<svg
  xmlns="http://www.w3.org/2000/svg"
  width="100%"
  height="100%"
  viewBox="0 0 7 9"
>
  <path
    d="M0 8.4V7.5H1.176V0.900001H0V0H3.276C4.38 0 5.232 0.28 5.832 0.84C6.44 1.4 6.744 2.26 6.744 3.42V4.98C6.744 6.148 6.44 7.012 5.832 7.572C5.232 8.124 4.38 8.4 3.276 8.4H0ZM2.184 7.488H3.276C4.092 7.488 4.708 7.288 5.124 6.888C5.54 6.488 5.748 5.868 5.748 5.028V3.384C5.748 2.528 5.54 1.904 5.124 1.512C4.708 1.12 4.092 0.924 3.276 0.924H2.184V7.488Z"
    fill="currentColor"
    className="transition-colors"
  />
</svg>